Dances.with.Wolves.1990.Extended.Cut.1080p.BRRip.x264.aac.mp4.anoXmous

Format                           : MPEG-4
Format profile                   : Base Media
Codec ID                         : isom
File size                        : 2.19 GiB
Duration                         : 3h 53mn
Overall bit rate mode            : Variable
Overall bit rate                 : 1 338 Kbps



Video
ID                               : 1
Format                           : AVC
Format/Info                      : Advanced Video Codec
Format profile                   : High@L4.1
Format settings, CABAC           : Yes
Format settings, ReFrames        : 4 frames
Codec ID                         : avc1
Codec ID/Info                    : Advanced Video Coding
Duration                         : 3h 53mn
Bit rate                         : 1 266 Kbps
Maximum bit rate                 : 11.7 Mbps
Width                            : 1 920 pixels
Height                           : 812 pixels
Display aspect ratio             : 2.35:1
Frame rate mode                  : Constant
Frame rate                       : 23.976 fps
Color space                      : YUV
Chroma subsampling               : 4:2:0
Bit depth                        : 8 bits
Scan type                        : Progressive
Bits/(Pixel*Frame)               : 0.034
Stream size                      : 2.07 GiB (95%)
Writing library                  : x264 core 120 r2120 0c7dab9



Audio
ID                               : 2
Format                           : AAC
Format/Info                      : Advanced Audio Codec
Format profile                   : LC
Codec ID                         : 40
Duration                         : 3h 53mn
Bit rate mode                    : Variable
Bit rate                         : 69.8 Kbps
Maximum bit rate                 : 97.6 Kbps
Channel(s)                       : 2 channels
Channel positions                : Front: L R
Sampling rate                    : 48.0 KHz 
Compression mode                 : Lossy
Stream size                      : 117 MiB (5%)

Source: Dances.With.Wolves.1990.EXT.1080p.BluRay.x264-DON --- THX :)

Menu
00:00:00.000                     : Main Title/No Gangrene
00:05:01.051                     : Suicide Mission
00:11:46.664                     : A Fool's Errand
00:20:19.760                     : The Foulest Man Alive
00:26:41.350                     : "This Is My Post"
00:36:10.168                     : Clean-Up Duty
00:42:19.620                     : Killing the Messenger
00:47:22.381                     : A Friend in Two Socks
00:52:50.626                     : The Naked Soldier
00:56:54.036                     : What About the White Man?
01:03:57.208                     : Little Big Horse Thieves
01:09:49.352                     : Death of a Husband
01:11:47.595                     : "She's Hurt!"
01:19:58.961                     : Lost in the Translation
01:25:33.754                     : Remember the White Words
01:32:32.922                     : Official Introductions
01:41:53.065                     : Who Killed the Buffalo?
01:53:44.234                     : The Deep Divide
01:56:17.262                     : A Successful Hunt
02:04:32.048                     : "Good Trade"
02:13:04.226                     : Wolf Dancing
02:18:54.117                     : A Great Honor
02:27:34.846                     : The Story of the Fist
02:38:09.105                     : "I Am in Mourning"
02:42:20.814                     : A Call to Arms
02:53:02.330                     : Permission to Love
03:03:59.695                     : The Most Important Trail
03:13:15.709                     : "Turned Injun, Didn'cha?"
03:20:56.044                     : Traitor Status
03:27:34.067                     : Wolves and Other Animals
03:35:37.341                     : Parting Gifts
03:48:25.317                     : Epilogue/Credits

SUBTITLES:.......In .srt file....: English (+Forced), Bulgarian, Croatian, 
Czech, French, Greek, Hungarian, Polish, Portuguese (Brazil), Romanian, 
Serbian, Slovenian, Spanish, Swedish, Vietnamese
								   
-- This works very fine with PSP and XBOX --  							   